<mxfile host="Electron" agent="Mozilla/5.0 (Macintosh; Intel Mac OS X 10_15_7) AppleWebKit/537.36 (KHTML, like Gecko) draw.io/28.0.4 Chrome/138.0.7204.97 Electron/37.2.1 Safari/537.36" version="28.0.4" pages="4">
  <diagram id="b0a1ff3abe5c4120" name="Global Overview Graph Tb">
    <mxGraphModel dx="706" dy="604" grid="1" gridSize="10" guides="1" tooltips="1" connect="1" arrows="1" fold="1" page="1" pageScale="1" pageWidth="827" pageHeight="1169" math="0" shadow="0">
      <root>
        <mxCell id="0" />
        <mxCell id="1" parent="0" />
        <UserObject label="" mermaidData="{&quot;data&quot;:&quot;graph TB\n    subgraph \&quot;Management Cluster\&quot;\n        subgraph \&quot;GitOps Platform\&quot;\n            ARGO[ArgoCD Hub]\n            GIT[Git Repositories]\n        end\n        \n        subgraph \&quot;Policy &amp; Security\&quot;\n            RHACS[Red Hat Advanced Cluster Security]\n            POL[Policy Engine - Kyverno]\n        end\n        \n        subgraph \&quot;Multi-Cluster Management\&quot;\n            RHACM[Red Hat Advanced Cluster Management]\n            FLEET[Fleet Management]\n        end\n        \n        subgraph \&quot;Observability Stack\&quot;\n            PROM[Prometheus Federation]\n            GRAF[Grafana Central]\n            ALERT[AlertManager]\n            LOG[Logging Aggregation]\n        end\n        \n        subgraph \&quot;Backup &amp; DR\&quot;\n            RUBRIK[Rubrik Management]\n            BACKUP[Backup Policies]\n        end\n    end\n    \n    subgraph \&quot;Application Cluster 1 - Production\&quot;\n        subgraph \&quot;Virtualization Stack 1\&quot;\n            OVE1[OpenShift Virtualization]\n            VM1[Virtual Machines]\n            CDI1[Containerized Data Importer]\n        end\n        \n        subgraph \&quot;Networking 1\&quot;\n            CIL1[Cilium CNI]\n            MULT1[Multus Multi-Network]\n            SRIOV1[SR-IOV Networks]\n        end\n        \n        subgraph \&quot;Storage 1\&quot;\n            CSI1[CSI Drivers]\n            PV1[Persistent Volumes]\n        end\n        \n        subgraph \&quot;Local Agents\&quot;\n            ARGO1[ArgoCD Agent]\n            RHACS1[RHACS Agent]\n            MON1[Monitoring Agents]\n        end\n    end\n    \n    subgraph \&quot;Application Cluster 2 - Staging\&quot;\n        subgraph \&quot;Virtualization Stack 2\&quot;\n            OVE2[OpenShift Virtualization]\n            VM2[Virtual Machines]\n            CDI2[Containerized Data Importer]\n        end\n        \n        subgraph \&quot;Networking 2\&quot;\n            CIL2[Cilium CNI]\n            MULT2[Multus Multi-Network]\n            SRIOV2[SR-IOV Networks]\n        end\n        \n        subgraph \&quot;Storage 2\&quot;\n            CSI2[CSI Drivers]\n            PV2[Persistent Volumes]\n        end\n        \n        subgraph \&quot;Local Agents\&quot;\n            ARGO2[ArgoCD Agent]\n            RHACS2[RHACS Agent]\n            MON2[Monitoring Agents]\n        end\n    end\n    \n    subgraph \&quot;Application Cluster N - Development\&quot;\n        subgraph \&quot;Virtualization Stack N\&quot;\n            OVEN[OpenShift Virtualization]\n            VMN[Virtual Machines]\n            CDIN[Containerized Data Importer]\n        end\n        \n        subgraph \&quot;Networking N\&quot;\n            CILN[Cilium CNI]\n            MULTN[Multus Multi-Network]\n            SRIOVN[SR-IOV Networks]\n        end\n        \n        subgraph \&quot;Storage N\&quot;\n            CSIN[CSI Drivers]\n            PVN[Persistent Volumes]\n        end\n        \n        subgraph \&quot;Local Agents\&quot;\n            ARGON[ArgoCD Agent]\n            RHACSN[RHACS Agent]\n            MONN[Monitoring Agents]\n        end\n    end\n    \n    %% Management to Application Connections\n    ARGO --&gt; ARGO1\n    ARGO --&gt; ARGO2\n    ARGO --&gt; ARGON\n    \n    RHACM --&gt; ARGO1\n    RHACM --&gt; ARGO2\n    RHACM --&gt; ARGON\n    \n    RHACS --&gt; RHACS1\n    RHACS --&gt; RHACS2\n    RHACS --&gt; RHACSN\n    \n    PROM --&gt; MON1\n    PROM --&gt; MON2\n    PROM --&gt; MONN\n    \n    RUBRIK --&gt; PV1\n    RUBRIK --&gt; PV2\n    RUBRIK --&gt; PVN\n    \n    %% Git to ArgoCD\n    GIT --&gt; ARGO\n    \n    %% Policy Distribution\n    POL --&gt; RHACS1\n    POL --&gt; RHACS2\n    POL --&gt; RHACSN&quot;}" id="96da1b2343694d62">
          <mxCell style="shape=image;noLabel=1;verticalAlign=top;imageAspect=1;image=data:image/svg+xml,PHN2ZyB3aWR0aD0iMjAwIiBoZWlnaHQ9IjIwMCIgeG1sbnM9Imh0dHA6Ly93d3cudzMub3JnLzIwMDAvc3ZnIj48cmVjdCB3aWR0aD0iMjAwIiBoZWlnaHQ9IjIwMCIgZmlsbD0iI2Y5ZjlmOSIgc3Ryb2tlPSIjY2NjIi8+PHRleHQgeD0iMTAwIiB5PSIxMDAiIHRleHQtYW5jaG9yPSJtaWRkbGUiIGZvbnQtZmFtaWx5PSJBcmlhbCIgZm9udC1zaXplPSIxNCIgZmlsbD0iIzMzMyI+TWVybWFpZCBEaWFncmFtPC90ZXh0Pjwvc3ZnPg==;" vertex="1" parent="1">
            <mxGeometry x="260" y="130" width="200" height="200" as="geometry" />
          </mxCell>
        </UserObject>
      </root>
    </mxGraphModel>
  </diagram>
  <diagram id="08054ae1e9224eb4" name="Global Overview Graph Tb 2">
    <mxGraphModel dx="706" dy="604" grid="1" gridSize="10" guides="1" tooltips="1" connect="1" arrows="1" fold="1" page="1" pageScale="1" pageWidth="827" pageHeight="1169" math="0" shadow="0">
      <root>
        <mxCell id="0" />
        <mxCell id="1" parent="0" />
        <UserObject label="" mermaidData="{&quot;data&quot;:&quot;graph TB\n    subgraph \&quot;Management Network - 10.0.0.0/16\&quot;\n        MGT[Management Cluster]\n        MGT_API[API Endpoints]\n        MGT_MON[Monitoring Services]\n    end\n    \n    subgraph \&quot;Production Network - 10.1.0.0/16\&quot;\n        PROD[Production Cluster]\n        PROD_VM[Production VMs]\n        PROD_SVC[Production Services]\n    end\n    \n    subgraph \&quot;Staging Network - 10.2.0.0/16\&quot;\n        STAGE[Staging Cluster]\n        STAGE_VM[Staging VMs]\n        STAGE_SVC[Staging Services]\n    end\n    \n    subgraph \&quot;Development Network - 10.3.0.0/16\&quot;\n        DEV[Development Cluster]\n        DEV_VM[Development VMs]\n        DEV_SVC[Development Services]\n    end\n    \n    subgraph \&quot;Shared Services Network - 10.254.0.0/16\&quot;\n        DNS[DNS Services]\n        NTP[NTP Services]\n        LDAP[LDAP/AD Services]\n        BACKUP[Backup Services]\n    end\n    \n    %% Management connections\n    MGT_API -.-&gt; PROD\n    MGT_API -.-&gt; STAGE\n    MGT_API -.-&gt; DEV\n    MGT_MON -.-&gt; PROD\n    MGT_MON -.-&gt; STAGE\n    MGT_MON -.-&gt; DEV\n    \n    %% Shared services connections\n    PROD -.-&gt; DNS\n    STAGE -.-&gt; DNS\n    DEV -.-&gt; DNS\n    PROD -.-&gt; BACKUP\n    STAGE -.-&gt; BACKUP\n    DEV -.-&gt; BACKUP&quot;}" id="e9eaae682c134856">
          <mxCell style="shape=image;noLabel=1;verticalAlign=top;imageAspect=1;image=data:image/svg+xml,PHN2ZyB3aWR0aD0iMjAwIiBoZWlnaHQ9IjIwMCIgeG1sbnM9Imh0dHA6Ly93d3cudzMub3JnLzIwMDAvc3ZnIj48cmVjdCB3aWR0aD0iMjAwIiBoZWlnaHQ9IjIwMCIgZmlsbD0iI2Y5ZjlmOSIgc3Ryb2tlPSIjY2NjIi8+PHRleHQgeD0iMTAwIiB5PSIxMDAiIHRleHQtYW5jaG9yPSJtaWRkbGUiIGZvbnQtZmFtaWx5PSJBcmlhbCIgZm9udC1zaXplPSIxNCIgZmlsbD0iIzMzMyI+TWVybWFpZCBEaWFncmFtPC90ZXh0Pjwvc3ZnPg==;" vertex="1" parent="1">
            <mxGeometry x="260" y="130" width="200" height="200" as="geometry" />
          </mxCell>
        </UserObject>
      </root>
    </mxGraphModel>
  </diagram>
  <diagram id="83c6ec0679364045" name="Global Overview Graph Tb 3">
    <mxGraphModel dx="706" dy="604" grid="1" gridSize="10" guides="1" tooltips="1" connect="1" arrows="1" fold="1" page="1" pageScale="1" pageWidth="827" pageHeight="1169" math="0" shadow="0">
      <root>
        <mxCell id="0" />
        <mxCell id="1" parent="0" />
        <UserObject label="" mermaidData="{&quot;data&quot;:&quot;graph TB\n    subgraph \&quot;Management Operations\&quot;\n        PATCH[Security Patches]\n        UPDATE[Component Updates]\n        SCALE[Capacity Scaling]\n        BACKUP[Backup Verification]\n    end\n    \n    subgraph \&quot;Application Operations\&quot;\n        DEPLOY[VM Deployment]\n        MIGRATE[VM Migration]\n        MONITOR[Performance Monitoring]\n        TROUBLESHOOT[Issue Resolution]\n    end\n    \n    subgraph \&quot;Governance\&quot;\n        POLICY[Policy Compliance]\n        AUDIT[Security Audit]\n        REPORT[Reporting]\n        REVIEW[Architecture Review]\n    end\n    \n    PATCH --&gt; UPDATE\n    UPDATE --&gt; SCALE\n    SCALE --&gt; BACKUP\n    \n    DEPLOY --&gt; MIGRATE\n    MIGRATE --&gt; MONITOR\n    MONITOR --&gt; TROUBLESHOOT\n    \n    POLICY --&gt; AUDIT\n    AUDIT --&gt; REPORT\n    REPORT --&gt; REVIEW\n    \n    BACKUP -.-&gt; DEPLOY\n    TROUBLESHOOT -.-&gt; POLICY\n    REVIEW -.-&gt; PATCH&quot;}" id="926ca0b048464e96">
          <mxCell style="shape=image;noLabel=1;verticalAlign=top;imageAspect=1;image=data:image/svg+xml,PHN2ZyB3aWR0aD0iMjAwIiBoZWlnaHQ9IjIwMCIgeG1sbnM9Imh0dHA6Ly93d3cudzMub3JnLzIwMDAvc3ZnIj48cmVjdCB3aWR0aD0iMjAwIiBoZWlnaHQ9IjIwMCIgZmlsbD0iI2Y5ZjlmOSIgc3Ryb2tlPSIjY2NjIi8+PHRleHQgeD0iMTAwIiB5PSIxMDAiIHRleHQtYW5jaG9yPSJtaWRkbGUiIGZvbnQtZmFtaWx5PSJBcmlhbCIgZm9udC1zaXplPSIxNCIgZmlsbD0iIzMzMyI+TWVybWFpZCBEaWFncmFtPC90ZXh0Pjwvc3ZnPg==;" vertex="1" parent="1">
            <mxGeometry x="260" y="130" width="200" height="200" as="geometry" />
          </mxCell>
        </UserObject>
      </root>
    </mxGraphModel>
  </diagram>
  <diagram id="244faa04b9db4a76" name="Global Overview Sequencediagram">
    <mxGraphModel dx="706" dy="604" grid="1" gridSize="10" guides="1" tooltips="1" connect="1" arrows="1" fold="1" page="1" pageScale="1" pageWidth="827" pageHeight="1169" math="0" shadow="0">
      <root>
        <mxCell id="0" />
        <mxCell id="1" parent="0" />
        <UserObject label="" mermaidData="{&quot;data&quot;:&quot;sequenceDiagram\n    participant Admin as Platform Admin\n    participant RHACM as RHACM Hub\n    participant Git as Git Repository\n    participant ArgoCD as ArgoCD Hub\n    participant Cluster as New Cluster\n    \n    Admin-&gt;&gt;Git: Commit cluster definition\n    Git-&gt;&gt;ArgoCD: Webhook trigger\n    ArgoCD-&gt;&gt;RHACM: Apply cluster manifest\n    RHACM-&gt;&gt;Cluster: Provision cluster\n    Cluster-&gt;&gt;RHACM: Registration\n    RHACM-&gt;&gt;ArgoCD: Cluster ready notification\n    ArgoCD-&gt;&gt;Cluster: Deploy applications\n    Cluster-&gt;&gt;Admin: Cluster operational&quot;}" id="a1c1dd9e2e8c45ce">
          <mxCell style="shape=image;noLabel=1;verticalAlign=top;imageAspect=1;image=data:image/svg+xml,PHN2ZyB3aWR0aD0iMjAwIiBoZWlnaHQ9IjIwMCIgeG1sbnM9Imh0dHA6Ly93d3cudzMub3JnLzIwMDAvc3ZnIj48cmVjdCB3aWR0aD0iMjAwIiBoZWlnaHQ9IjIwMCIgZmlsbD0iI2Y5ZjlmOSIgc3Ryb2tlPSIjY2NjIi8+PHRleHQgeD0iMTAwIiB5PSIxMDAiIHRleHQtYW5jaG9yPSJtaWRkbGUiIGZvbnQtZmFtaWx5PSJBcmlhbCIgZm9udC1zaXplPSIxNCIgZmlsbD0iIzMzMyI+TWVybWFpZCBEaWFncmFtPC90ZXh0Pjwvc3ZnPg==;" vertex="1" parent="1">
            <mxGeometry x="260" y="130" width="200" height="200" as="geometry" />
          </mxCell>
        </UserObject>
      </root>
    </mxGraphModel>
  </diagram>
</mxfile>